<svg xmlns="http://www.w3.org/2000/svg" xmlns:xlink="http://www.w3.org/1999/xlink" width="1080" zoomAndPan="magnify" viewBox="0 0 810 809.999993" height="1080" preserveAspectRatio="xMidYMid meet" version="1.0"><path fill="#ffffff" d="M 128.480469 390.230469 L 129.347656 390.230469 C 131.332031 388.332031 133.558594 386.578125 136.015625 384.960938 C 138.210938 383.625 140.773438 382.386719 143.710938 381.246094 C 146.644531 380.121094 149.921875 379.554688 153.535156 379.554688 C 158.457031 379.554688 162.535156 380.808594 165.765625 383.316406 C 168.996094 385.835938 170.609375 389.273438 170.609375 393.632812 C 170.609375 394.863281 170.460938 396.363281 170.167969 398.125 C 169.882812 399.875 169.558594 401.699219 169.1875 403.597656 C 168.804688 405.496094 168.394531 407.414062 167.964844 409.359375 C 167.535156 411.316406 167.179688 413.050781 166.898438 414.5625 L 160.917969 442.316406 L 132.039062 442.316406 L 139.863281 405.175781 C 140.054688 403.929688 140.292969 402.671875 140.574219 401.394531 C 140.855469 400.121094 140.996094 398.957031 140.996094 397.902344 C 140.996094 396.480469 140.640625 395.316406 139.929688 394.414062 C 139.21875 393.523438 138.152344 393.078125 136.730469 393.078125 C 135.023438 393.078125 133.394531 393.691406 131.835938 394.925781 C 130.265625 396.15625 129.050781 397.199219 128.191406 398.058594 L 118.808594 442.316406 L 89.773438 442.316406 L 102.734375 381.113281 L 125.921875 381.113281 Z M 245.578125 413.71875 L 205.605469 413.71875 C 205.21875 415.792969 204.960938 417.78125 204.828125 419.675781 C 204.679688 421.574219 204.605469 423.289062 204.605469 424.816406 C 204.605469 425.660156 204.65625 426.609375 204.761719 427.660156 C 204.847656 428.699219 205.054688 429.671875 205.382812 430.574219 C 205.722656 431.480469 206.199219 432.234375 206.804688 432.84375 C 207.429688 433.464844 208.308594 433.777344 209.449219 433.777344 C 210.296875 433.777344 211.265625 433.496094 212.363281 432.933594 C 213.460938 432.355469 214.550781 431.546875 215.632812 430.507812 C 216.726562 429.457031 217.773438 428.171875 218.765625 426.660156 C 219.757812 425.148438 220.546875 423.441406 221.125 421.546875 L 244.445312 421.546875 L 240.753906 436.757812 C 238.855469 438.003906 236.671875 439.046875 234.195312 439.894531 C 231.734375 440.753906 229.125 441.441406 226.371094 441.960938 C 223.628906 442.480469 220.835938 442.859375 217.988281 443.097656 C 215.144531 443.332031 212.4375 443.453125 209.875 443.453125 C 205.128906 443.453125 200.722656 443.03125 196.644531 442.183594 C 192.570312 441.324219 189.011719 439.847656 185.972656 437.757812 C 182.933594 435.667969 180.542969 432.894531 178.792969 429.441406 C 177.027344 425.972656 176.148438 421.679688 176.148438 416.5625 C 176.148438 411.90625 176.878906 407.347656 178.347656 402.886719 C 179.828125 398.421875 182.296875 394.464844 185.75 391.007812 C 189.21875 387.539062 193.867188 384.761719 199.691406 382.667969 C 205.53125 380.59375 212.816406 379.554688 221.546875 379.554688 C 231.03125 379.554688 238.167969 381.023438 242.957031 383.960938 C 247.742188 386.894531 250.136719 391.5 250.136719 397.769531 C 250.136719 400.335938 249.757812 403.109375 249.003906 406.089844 C 248.246094 409.082031 247.105469 411.625 245.578125 413.71875 Z M 224.523438 396.769531 C 224.523438 393.835938 224.050781 391.839844 223.101562 390.789062 C 222.152344 389.75 221.019531 389.230469 219.699219 389.230469 C 218.171875 389.230469 216.773438 389.726562 215.5 390.71875 C 214.207031 391.714844 213.046875 393.039062 212.007812 394.703125 C 210.96875 396.363281 210.023438 398.261719 209.160156 400.394531 C 208.300781 402.53125 207.589844 404.785156 207.027344 407.15625 L 223.257812 407.15625 C 223.433594 406.015625 223.621094 404.828125 223.8125 403.597656 C 224.007812 402.558594 224.175781 401.425781 224.324219 400.195312 C 224.457031 398.949219 224.523438 397.808594 224.523438 396.769531 Z M 280.4375 433.066406 L 274.035156 442.316406 L 251.003906 442.316406 L 271.191406 346.664062 L 300.359375 346.664062 L 291.109375 390.230469 L 292.113281 390.230469 C 295.238281 386.613281 298.773438 384.027344 302.714844 382.46875 C 306.660156 380.898438 310.570312 380.113281 314.453125 380.113281 C 317.773438 380.113281 320.546875 380.609375 322.769531 381.601562 C 325.007812 382.609375 326.785156 383.96875 328.105469 385.671875 C 329.441406 387.378906 330.386719 389.414062 330.953125 391.789062 C 331.53125 394.160156 331.820312 396.671875 331.820312 399.328125 C 331.820312 400.660156 331.722656 402.65625 331.53125 405.308594 C 331.335938 407.964844 330.90625 410.929688 330.238281 414.207031 C 329.585938 417.484375 328.640625 420.847656 327.394531 424.304688 C 326.164062 427.773438 324.535156 430.929688 322.503906 433.777344 C 320.457031 436.625 317.894531 438.953125 314.8125 440.761719 C 311.726562 442.554688 308.050781 443.453125 303.785156 443.453125 C 301.21875 443.453125 298.730469 443.171875 296.3125 442.605469 C 293.898438 442.027344 291.71875 441.265625 289.777344 440.316406 C 287.820312 439.367188 286.109375 438.253906 284.640625 436.980469 C 283.175781 435.703125 282.105469 434.398438 281.441406 433.066406 Z M 290.132812 429.640625 C 292.398438 429.640625 294.296875 428.433594 295.824219 426.015625 C 297.335938 423.597656 298.566406 420.753906 299.515625 417.476562 C 300.464844 414.199219 301.152344 410.929688 301.582031 407.667969 C 302.011719 404.390625 302.226562 401.945312 302.226562 400.328125 C 302.226562 398.429688 301.914062 396.867188 301.292969 395.636719 C 300.671875 394.40625 299.558594 393.789062 297.957031 393.789062 C 296.0625 393.789062 294.304688 394.472656 292.6875 395.835938 C 291.074219 397.214844 289.886719 398.378906 289.132812 399.328125 L 283.574219 424.816406 C 284.242188 425.957031 285.121094 427.046875 286.21875 428.085938 C 287.300781 429.121094 288.605469 429.640625 290.132812 429.640625 Z M 379.195312 425.371094 L 388.734375 381.113281 L 417.746094 381.113281 L 404.675781 442.316406 L 381.621094 442.316406 L 379.0625 433.199219 L 378.195312 433.199219 C 375.734375 436.148438 372.394531 438.597656 368.167969 440.539062 C 363.945312 442.480469 359.699219 443.453125 355.429688 443.453125 C 349.738281 443.453125 345.285156 442.007812 342.066406 439.113281 C 338.835938 436.222656 337.222656 432.449219 337.222656 427.792969 C 337.222656 425.421875 337.621094 422.457031 338.421875 418.898438 C 339.238281 415.339844 339.976562 411.996094 340.644531 408.867188 L 346.601562 381.113281 L 375.503906 381.113281 L 368.390625 414.429688 C 368.199219 415.183594 368.003906 416.082031 367.8125 417.121094 C 367.621094 418.171875 367.425781 419.195312 367.234375 420.1875 C 367.058594 421.183594 366.894531 422.132812 366.746094 423.035156 C 366.597656 423.941406 366.523438 424.671875 366.523438 425.238281 C 366.523438 426.660156 366.835938 427.867188 367.457031 428.863281 C 368.078125 429.855469 369.191406 430.351562 370.792969 430.351562 C 372.511719 430.351562 374.125 429.789062 375.640625 428.664062 C 377.152344 427.519531 378.335938 426.421875 379.195312 425.371094 Z M 466.835938 346.664062 L 446.492188 442.316406 L 417.480469 442.316406 L 437.667969 346.664062 Z M 468.125 399.039062 L 470.839844 386.382812 C 475.667969 384.011719 480.621094 382.277344 485.6875 381.179688 C 490.773438 380.097656 496.441406 379.554688 502.695312 379.554688 C 508.773438 379.554688 513.804688 380.03125 517.792969 380.980469 C 521.765625 381.929688 524.9375 383.300781 527.308594 385.09375 C 529.679688 386.902344 531.339844 389.039062 532.289062 391.5 C 533.238281 393.976562 533.710938 396.777344 533.710938 399.90625 C 533.710938 401.699219 533.59375 403.640625 533.355469 405.734375 C 533.117188 407.824219 532.859375 409.582031 532.578125 411.003906 L 525.886719 442.316406 L 502.984375 442.316406 L 500.429688 433.199219 L 499.5625 433.199219 C 496.539062 436.519531 493.011719 439.0625 488.980469 440.828125 C 484.949219 442.578125 480.9375 443.453125 476.953125 443.453125 C 474.667969 443.453125 472.4375 443.117188 470.261719 442.449219 C 468.082031 441.796875 466.140625 440.78125 464.433594 439.402344 C 462.714844 438.023438 461.335938 436.269531 460.300781 434.132812 C 459.261719 432 458.742188 429.410156 458.742188 426.371094 C 458.742188 421.433594 460.09375 417.519531 462.789062 414.628906 C 465.488281 411.738281 469.042969 409.558594 473.460938 408.089844 C 477.878906 406.621094 482.859375 405.695312 488.402344 405.308594 C 493.945312 404.925781 499.519531 404.730469 505.121094 404.730469 C 505.3125 403.78125 505.550781 402.433594 505.832031 400.683594 C 506.113281 398.933594 506.253906 397.394531 506.253906 396.058594 C 506.253906 394.351562 505.800781 392.765625 504.898438 391.296875 C 504.007812 389.816406 502.140625 389.074219 499.296875 389.074219 C 495.976562 389.074219 493.53125 390.054688 491.957031 392.011719 C 490.386719 393.953125 489.363281 396.296875 488.890625 399.039062 Z M 501.273438 422.390625 L 503.5625 411.425781 L 500.984375 411.425781 C 498.242188 411.425781 495.902344 411.78125 493.960938 412.492188 C 492.003906 413.207031 490.433594 414.132812 489.246094 415.273438 C 488.0625 416.414062 487.1875 417.699219 486.625 419.121094 C 486.058594 420.542969 485.777344 421.96875 485.777344 423.390625 C 485.777344 425.660156 486.371094 427.363281 487.558594 428.507812 C 488.742188 429.648438 490.136719 430.21875 491.738281 430.21875 C 493.738281 430.21875 495.707031 429.507812 497.648438 428.085938 C 499.59375 426.660156 500.800781 424.761719 501.273438 422.390625 Z M 501.273438 422.390625 " fill-opacity="1" fill-rule="nonzero"/><path fill="#ffffff" d="M 689.609375 404.230469 L 768.167969 350.214844 L 793.65625 348.226562 Z M 736.488281 475.585938 L 750.585938 481.914062 L 707.839844 407.65625 Z M 736.488281 475.585938 " fill-opacity="1" fill-rule="nonzero"/><path fill="#ffffff" d="M 672.753906 413.125 L 725.078125 362.980469 L 680.191406 367.894531 L 659.800781 321.386719 L 633.160156 372.199219 L 582.160156 377.414062 L 611.695312 405.707031 L 594.246094 459.847656 L 654.582031 421.503906 L 714.65625 454.542969 L 704.371094 401.96875 L 730.878906 475.5625 L 657.472656 434.671875 L 570.230469 495.792969 L 598.90625 411.507812 L 544.390625 367.058594 L 627.097656 360.984375 L 662.054688 290.480469 L 692.753906 353.796875 L 763.496094 349.359375 Z M 672.753906 413.125 " fill-opacity="1" fill-rule="nonzero"/></svg>