<svg xmlns="http://www.w3.org/2000/svg" class="svg-logo" width="2400" height="2400" viewBox="0 0 630 430" style="height: auto;"><rect width="630" height="630" y="-100" rx="0" ry="0" fill="transparent" fill-opacity="0"></rect><g data-element="wrapper" transform="translate(-488.25003890991485 -333.2500000000019) scale(2.5500000000000087)"><g ><g data-element="icon" transform="scale(0.1558686393940571) translate(1976.7125300687899 1081.728030058347)"><path id="color_x5F_2" d="M342.676,321.916l171.866-118.233l55.762-4.347L342.676,321.916z M445.229,478.109    l30.844,13.851l-93.514-162.546L445.229,478.109z" fill="#000000" fill-opacity="1"></path> <polygon id="color_x5F_1" points="305.796,341.385 420.27,231.625 322.068,242.387 277.454,140.586 219.177,251.811     107.598,263.218 172.218,325.152 134.037,443.658 266.044,359.732 397.467,432.043 374.968,316.969 432.961,478.053     272.363,388.552 81.501,522.338 144.24,337.852 24.973,240.559 205.914,227.261 282.391,72.939 349.55,211.528 504.319,201.818 " fill="#000000" fill-opacity="1"></polygon></g><path d="" data-element="company-name" data-text-path="" data-text="ㅤ" data-font-family="Limelight" fill="#000000" fill-opacity="1"></path></g></g></svg>