<svg xmlns="http://www.w3.org/2000/svg" class="svg-logo" width="2400" height="2400" viewBox="0 0 630 430" style="height: auto;"><rect width="630" height="630" y="-100" rx="0" ry="0" fill="transparent" fill-opacity="0"></rect><g data-element="wrapper" transform="translate(-330.7500000000033 -215.5000000000022) scale(2.0500000000000105)"><g ><path d="M231.50 208.58L231.89 208.58Q233.23 207.30 234.89 206.21L234.89 206.21Q236.37 205.31 238.35 204.54Q240.33 203.78 242.77 203.78L242.77 203.78Q246.09 203.78 248.27 205.47Q250.45 207.17 250.45 210.11L250.45 210.11Q250.45 210.94 250.25 212.13Q250.06 213.31 249.81 214.59Q249.55 215.87 249.26 217.18Q248.97 218.50 248.78 219.52L248.78 219.52L246.09 232L233.10 232L236.62 215.30Q236.75 214.46 236.94 213.60Q237.13 212.74 237.13 212.03L237.13 212.03Q237.13 211.07 236.65 210.46Q236.17 209.86 235.21 209.86L235.21 209.86Q234.06 209.86 233.01 210.69Q231.95 211.52 231.37 212.10L231.37 212.10L227.15 232L214.09 232L219.92 204.48L230.35 204.48L231.50 208.58ZM284.17 219.14L266.19 219.14Q265.93 220.54 265.84 221.82Q265.74 223.10 265.74 224.13L265.74 224.13Q265.74 224.70 265.81 225.41Q265.87 226.11 266.09 226.72Q266.32 227.33 266.73 227.74Q267.15 228.16 267.92 228.16L267.92 228.16Q268.49 228.16 269.23 227.78Q269.97 227.39 270.70 226.69Q271.44 225.98 272.11 224.96Q272.78 223.94 273.17 222.66L273.17 222.66L283.66 222.66L282.00 229.50Q280.72 230.34 279.05 230.91Q277.39 231.49 275.53 231.84Q273.68 232.19 271.76 232.35Q269.84 232.51 268.11 232.51L268.11 232.51Q264.91 232.51 262.16 231.94Q259.41 231.36 257.36 229.95Q255.31 228.54 254.13 226.21Q252.94 223.87 252.94 220.42L252.94 220.42Q252.94 217.28 253.93 214.27Q254.93 211.26 257.26 208.93Q259.60 206.59 263.53 205.18Q267.47 203.78 273.36 203.78L273.36 203.78Q279.76 203.78 282.99 205.76Q286.22 207.74 286.22 211.97L286.22 211.97Q286.22 213.70 285.71 215.71Q285.20 217.73 284.17 219.14L284.17 219.14ZM274.70 211.52L274.70 211.52Q274.70 209.54 274.06 208.83Q273.42 208.13 272.53 208.13L272.53 208.13Q271.50 208.13 270.64 208.80Q269.77 209.47 269.07 210.59Q268.37 211.71 267.79 213.15Q267.21 214.59 266.83 216.19L266.83 216.19L274.13 216.19Q274.25 215.42 274.38 214.59L274.38 214.59Q274.51 213.89 274.61 213.06Q274.70 212.22 274.70 211.52ZM299.85 227.84L296.97 232L286.61 232L295.69 188.99L308.81 188.99L304.65 208.58L305.10 208.58Q307.21 206.14 309.87 205.09Q312.53 204.03 315.15 204.03L315.15 204.03Q317.39 204.03 318.89 204.70Q320.40 205.38 321.29 206.53Q322.19 207.68 322.57 209.28Q322.96 210.88 322.96 212.67L322.96 212.67Q322.96 213.57 322.83 215.36Q322.70 217.15 322.25 219.36Q321.81 221.57 320.97 223.90Q320.14 226.24 318.77 228.16Q317.39 230.08 315.31 231.30Q313.23 232.51 310.35 232.51L310.35 232.51Q308.62 232.51 306.99 232.13Q305.36 231.74 304.05 231.10Q302.73 230.46 301.74 229.60Q300.75 228.74 300.30 227.84L300.30 227.84L299.85 227.84ZM304.21 226.30L304.21 226.30Q305.74 226.30 306.77 224.67Q307.79 223.04 308.43 220.83Q309.07 218.62 309.36 216.42Q309.65 214.21 309.65 213.12L309.65 213.12Q309.65 211.84 309.23 211.01Q308.81 210.18 307.73 210.18L307.73 210.18Q306.45 210.18 305.36 211.10Q304.27 212.03 303.76 212.67L303.76 212.67L301.26 224.13Q301.71 224.90 302.45 225.60Q303.18 226.30 304.21 226.30ZM344.27 224.38L348.56 204.48L361.61 204.48L355.73 232L345.36 232L344.21 227.90L343.82 227.90Q342.16 229.89 339.31 231.20Q336.46 232.51 333.58 232.51L333.58 232.51Q329.74 232.51 327.57 230.56Q325.39 228.61 325.39 225.47L325.39 225.47Q325.39 223.87 325.93 221.47Q326.48 219.07 326.93 216.96L326.93 216.96L329.61 204.48L342.61 204.48L339.41 219.46Q339.28 219.97 339.15 220.67Q339.02 221.38 338.89 222.05Q338.77 222.72 338.67 223.33Q338.57 223.94 338.57 224.32L338.57 224.32Q338.57 225.28 338.99 225.95Q339.41 226.62 340.49 226.62L340.49 226.62Q341.65 226.62 342.67 225.86Q343.69 225.09 344.27 224.38L344.27 224.38ZM383.69 188.99L374.54 232L361.49 232L370.57 188.99L383.69 188.99ZM384.27 212.54L385.49 206.85Q388.75 205.25 392.17 204.51Q395.60 203.78 399.82 203.78L399.82 203.78Q403.92 203.78 406.61 204.42Q409.29 205.06 410.89 206.27Q412.49 207.49 413.13 209.15Q413.77 210.82 413.77 212.93L413.77 212.93Q413.77 214.14 413.61 215.55Q413.45 216.96 413.26 217.92L413.26 217.92L410.25 232L399.95 232L398.80 227.90L398.41 227.90Q396.37 230.14 393.65 231.33Q390.93 232.51 388.24 232.51L388.24 232.51Q386.70 232.51 385.23 232.06Q383.76 231.62 382.61 230.69Q381.45 229.76 380.75 228.32Q380.05 226.88 380.05 224.83L380.05 224.83Q380.05 221.50 381.87 219.55Q383.69 217.60 386.67 216.61Q389.65 215.62 393.39 215.36Q397.13 215.10 400.91 215.10L400.91 215.10Q401.04 214.46 401.23 213.28Q401.42 212.10 401.42 211.20L401.42 211.20Q401.42 210.05 400.81 209.06Q400.21 208.06 398.29 208.06L398.29 208.06Q396.05 208.06 394.99 209.38Q393.93 210.69 393.61 212.54L393.61 212.54L384.27 212.54ZM399.18 223.04L400.21 218.11L399.05 218.11Q397.20 218.11 395.89 218.59Q394.57 219.07 393.77 219.84Q392.97 220.61 392.59 221.57Q392.21 222.53 392.21 223.49L392.21 223.49Q392.21 225.02 393.01 225.79Q393.81 226.56 394.89 226.56L394.89 226.56Q396.24 226.56 397.55 225.60Q398.86 224.64 399.18 223.04L399.18 223.04Z" data-element="company-name" data-text-path="" data-text="nebula" data-font-family="Racing Sans One" fill="#000000" fill-opacity="1"></path></g></g></svg>