<svg id="visual" viewBox="0 0 900 600" width="900" height="600" xmlns="http://www.w3.org/2000/svg" xmlns:xlink="http://www.w3.org/1999/xlink" version="1.1"><rect x="0" y="0" width="900" height="600" fill="#ffffff"></rect><path d="M590 0L623 0L623 38L776 38L776 75L635 75L635 113L629 113L629 150L741 150L741 188L792 188L792 225L738 225L738 263L707 263L707 300L638 300L638 338L646 338L646 375L707 375L707 413L672 413L672 450L728 450L728 488L698 488L698 525L756 525L756 563L608 563L608 600L0 600L0 563L0 563L0 525L0 525L0 488L0 488L0 450L0 450L0 413L0 413L0 375L0 375L0 338L0 338L0 300L0 300L0 263L0 263L0 225L0 225L0 188L0 188L0 150L0 150L0 113L0 113L0 75L0 75L0 38L0 38L0 0L0 0Z" fill="#132a6a"></path><path d="M550 0L535 0L535 38L641 38L641 75L510 75L510 113L575 113L575 150L559 150L559 188L522 188L522 225L658 225L658 263L619 263L619 300L645 300L645 338L507 338L507 375L527 375L527 413L650 413L650 450L520 450L520 488L529 488L529 525L589 525L589 563L678 563L678 600L0 600L0 563L0 563L0 525L0 525L0 488L0 488L0 450L0 450L0 413L0 413L0 375L0 375L0 338L0 338L0 300L0 300L0 263L0 263L0 225L0 225L0 188L0 188L0 150L0 150L0 113L0 113L0 75L0 75L0 38L0 38L0 0L0 0Z" fill="#12255b"></path><path d="M466 0L445 0L445 38L417 38L417 75L472 75L472 113L521 113L521 150L460 150L460 188L430 188L430 225L535 225L535 263L519 263L519 300L525 300L525 338L568 338L568 375L538 375L538 413L413 413L413 450L441 450L441 488L583 488L583 525L537 525L537 563L425 563L425 600L0 600L0 563L0 563L0 525L0 525L0 488L0 488L0 450L0 450L0 413L0 413L0 375L0 375L0 338L0 338L0 300L0 300L0 263L0 263L0 225L0 225L0 188L0 188L0 150L0 150L0 113L0 113L0 75L0 75L0 38L0 38L0 0L0 0Z" fill="#101f4c"></path><path d="M370 0L361 0L361 38L414 38L414 75L360 75L360 113L372 113L372 150L396 150L396 188L341 188L341 225L406 225L406 263L346 263L346 300L458 300L458 338L427 338L427 375L378 375L378 413L363 413L363 450L474 450L474 488L476 488L476 525L437 525L437 563L328 563L328 600L0 600L0 563L0 563L0 525L0 525L0 488L0 488L0 450L0 450L0 413L0 413L0 375L0 375L0 338L0 338L0 300L0 300L0 263L0 263L0 225L0 225L0 188L0 188L0 150L0 150L0 113L0 113L0 75L0 75L0 38L0 38L0 0L0 0Z" fill="#0f1a3e"></path><path d="M281 0L240 0L240 38L265 38L265 75L259 75L259 113L235 113L235 150L313 150L313 188L235 188L235 225L364 225L364 263L319 263L319 300L370 300L370 338L319 338L319 375L340 375L340 413L269 413L269 450L369 450L369 488L369 488L369 525L374 525L374 563L244 563L244 600L0 600L0 563L0 563L0 525L0 525L0 488L0 488L0 450L0 450L0 413L0 413L0 375L0 375L0 338L0 338L0 300L0 300L0 263L0 263L0 225L0 225L0 188L0 188L0 150L0 150L0 113L0 113L0 75L0 75L0 38L0 38L0 0L0 0Z" fill="#0d1530"></path><path d="M227 0L257 0L257 38L186 38L186 75L241 75L241 113L192 113L192 150L180 150L180 188L145 188L145 225L208 225L208 263L253 263L253 300L224 300L224 338L167 338L167 375L263 375L263 413L194 413L194 450L167 450L167 488L191 488L191 525L146 525L146 563L153 563L153 600L0 600L0 563L0 563L0 525L0 525L0 488L0 488L0 450L0 450L0 413L0 413L0 375L0 375L0 338L0 338L0 300L0 300L0 263L0 263L0 225L0 225L0 188L0 188L0 150L0 150L0 113L0 113L0 75L0 75L0 38L0 38L0 0L0 0Z" fill="#0c0e23"></path><path d="M88 0L126 0L126 38L76 38L76 75L137 75L137 113L143 113L143 150L61 150L61 188L59 188L59 225L134 225L134 263L68 263L68 300L96 300L96 338L74 338L74 375L154 375L154 413L111 413L111 450L69 450L69 488L92 488L92 525L161 525L161 563L154 563L154 600L0 600L0 563L0 563L0 525L0 525L0 488L0 488L0 450L0 450L0 413L0 413L0 375L0 375L0 338L0 338L0 300L0 300L0 263L0 263L0 225L0 225L0 188L0 188L0 150L0 150L0 113L0 113L0 75L0 75L0 38L0 38L0 0L0 0Z" fill="#040516"></path></svg>