<svg version="1.1" id="Layer_1" xmlns="http://www.w3.org/2000/svg" xmlns:xlink="http://www.w3.org/1999/xlink" x="0px" y="0px" viewBox="0 0 500 500" style="width: 186px;" xml:space="preserve" data-imageid="achievement-45" imageName="Achievement" class="illustrations_image">
<style type="text/css">
	.st0_achievement-45{fill:#D1D3D4;}
	.st1_achievement-45{fill:#ffffff;}
	.st2_achievement-45{fill:#231F20;}
	.st3_achievement-45{fill:#4ea9d3;}
</style>
<g id="Lines">
	<path class="st0_achievement-45" d="M182.8,222.4c-0.1,0-0.2,0-0.3-0.1l-87.9-43.1c-0.3-0.2-0.5-0.6-0.3-0.9c0.2-0.3,0.6-0.5,0.9-0.3l87.9,43.1&#10;&#9;&#9;c0.3,0.2,0.5,0.6,0.3,0.9c0,0,0,0,0,0C183.4,222.3,183.1,222.4,182.8,222.4L182.8,222.4z"/>
	<path class="st0_achievement-45" d="M99.7,392.7c-0.2,0-0.4-0.1-0.5-0.2c-0.3-0.3-0.2-0.7,0.1-1c0,0,0,0,0,0l68.6-57.3c0.3-0.2,0.7-0.2,1,0.1&#10;&#9;&#9;s0.2,0.7-0.1,1l-68.6,57.3C100,392.6,99.8,392.7,99.7,392.7z"/>
	<path class="st0_achievement-45" d="M415.3,368.4c-0.2,0-0.3,0-0.4-0.1l-105.1-79.6c-0.3-0.2-0.4-0.7-0.1-1c0.2-0.3,0.7-0.4,1-0.1l105.1,79.6&#10;&#9;&#9;c0.3,0.2,0.4,0.7,0.2,1c0,0,0,0,0,0C415.7,368.4,415.5,368.5,415.3,368.4L415.3,368.4z"/>
	<path class="st0_achievement-45" d="M193.6,192.1c-0.2,0-0.4-0.1-0.5-0.2l-51.3-57.3c-0.3-0.3-0.2-0.7,0-1c0,0,0,0,0,0c0.3-0.3,0.7-0.2,1,0.1&#10;&#9;&#9;l51.3,57.4c0.3,0.3,0.2,0.7-0.1,1C194,192.1,193.8,192.2,193.6,192.1L193.6,192.1z"/>
	<path class="st0_achievement-45" d="M368.8,235.5c-0.3,0-0.5-0.2-0.6-0.4c-0.1-0.4,0-0.8,0.4-0.9l54.1-21.1c0.4-0.1,0.8,0,0.9,0.4s0,0.8-0.4,0.9&#10;&#9;&#9;L369,235.4C368.9,235.4,368.8,235.4,368.8,235.5L368.8,235.5z"/>
	<path class="st0_achievement-45" d="M284.3,187.3c-0.1,0-0.2,0-0.3-0.1c-0.3-0.2-0.5-0.6-0.3-0.9c0,0,0,0,0,0l19.3-39c0.2-0.3,0.6-0.5,0.9-0.3&#10;&#9;&#9;s0.5,0.6,0.3,0.9l0,0l-19.3,39C284.8,187.1,284.6,187.3,284.3,187.3z"/>
	<path class="st0_achievement-45" d="M415.3,282L415.3,282l-63.3-8.2c-0.4-0.1-0.6-0.4-0.6-0.8c0-0.4,0.4-0.6,0.8-0.6c0,0,0,0,0,0l63.2,8.2&#10;&#9;&#9;c0.4,0.1,0.6,0.4,0.6,0.8C415.9,281.8,415.6,282.1,415.3,282L415.3,282z"/>
	<path class="st0_achievement-45" d="M298,210.6c-0.2,0-0.4-0.1-0.5-0.3c-0.2-0.3-0.2-0.8,0.1-1c0,0,0,0,0,0l9.4-7.6c0.3-0.2,0.7-0.2,1,0.1&#10;&#9;&#9;c0,0,0,0,0,0c0.2,0.3,0.2,0.8-0.1,1c0,0,0,0,0,0l-9.4,7.6C298.3,210.6,298.2,210.6,298,210.6L298,210.6z"/>
	<path class="st0_achievement-45" d="M358.5,392.7c-0.2,0-0.5-0.1-0.6-0.3L321.6,331c-0.2-0.3-0.1-0.7,0.2-1c0,0,0,0,0.1,0c0.3-0.2,0.8-0.1,1,0.2&#10;&#9;&#9;c0,0,0,0,0,0.1l36.2,61.3c0.2,0.3,0.1,0.7-0.2,1c0,0,0,0-0.1,0C358.8,392.6,358.6,392.7,358.5,392.7L358.5,392.7z"/>
	<path class="st0_achievement-45" d="M159.6,396.2c-0.1,0-0.2,0-0.3-0.1c-0.3-0.2-0.5-0.6-0.3-0.9c0,0,0,0,0,0l14.7-27.7c0.2-0.3,0.6-0.5,0.9-0.3&#10;&#9;&#9;c0.3,0.2,0.5,0.6,0.3,1l-14.7,27.7C160.1,396,159.8,396.2,159.6,396.2z"/>
	<path class="st0_achievement-45" d="M77.1,308.8c-0.4,0-0.7-0.3-0.7-0.7c0-0.3,0.2-0.6,0.5-0.7l45.1-10.2c0.4-0.1,0.8,0.2,0.8,0.5&#10;&#9;&#9;c0.1,0.4-0.1,0.8-0.5,0.8c0,0,0,0,0,0l-45.1,10.3L77.1,308.8L77.1,308.8z"/>
	<path class="st0_achievement-45" d="M220.7,143.6c-0.3,0-0.6-0.2-0.7-0.5l-10.7-37.2c-0.1-0.4,0.1-0.8,0.5-0.9c0.4-0.1,0.8,0.1,0.9,0.5l10.7,37.2&#10;&#9;&#9;c0.1,0.4-0.1,0.8-0.5,0.9C220.9,143.6,220.8,143.6,220.7,143.6L220.7,143.6z"/>
	<path class="st0_achievement-45" d="M268.4,131.7c-0.1,0-0.1,0-0.2,0c-0.4-0.1-0.6-0.5-0.5-0.8l7.5-33.1c0.1-0.4,0.5-0.6,0.8-0.5s0.6,0.5,0.5,0.8&#10;&#9;&#9;l-7.6,33.1C268.9,131.4,268.6,131.6,268.4,131.7L268.4,131.7z"/>
	<path class="st0_achievement-45" d="M118.3,239.9H90.5c-0.4,0-0.7-0.3-0.7-0.7c0-0.4,0.3-0.7,0.7-0.7h27.9c0.4,0,0.7,0.3,0.7,0.7&#10;&#9;&#9;C119,239.6,118.7,239.9,118.3,239.9C118.3,239.9,118.3,239.9,118.3,239.9z"/>
</g>
<g id="Character">
	<path class="st1_achievement-45" d="M343.8,196.5c0,0,4.1-8.2,3.5-11.6s-1.7-13.4-1.7-13.4l27.6,2.6l-8.9,32"/>
	<path class="st2_achievement-45" d="M364.3,206.8c-0.1,0-0.1,0-0.2,0c-0.4-0.1-0.6-0.5-0.5-0.9c0,0,0,0,0,0l8.6-31.2l-25.8-2.4&#10;&#9;&#9;c0.3,2.5,1.2,9.8,1.6,12.5c0.6,3.6-3.4,11.7-3.6,12c-0.2,0.4-0.6,0.5-1,0.3s-0.5-0.6-0.3-1c1.1-2.2,3.9-8.6,3.5-11.1&#10;&#9;&#9;c-0.6-3.3-1.7-13-1.8-13.4c0-0.2,0.1-0.4,0.2-0.6c0.1-0.2,0.4-0.2,0.6-0.2l27.6,2.6c0.4,0,0.7,0.4,0.7,0.8c0,0,0,0.1,0,0.1l-8.9,32&#10;&#9;&#9;C364.9,206.6,364.6,206.8,364.3,206.8L364.3,206.8z"/>
	<path class="st1_achievement-45" d="M150.9,236.8c0,0,0.3-16.3,0-20s5.3-24.1,3.9-27.3s-5-4.4-6.3-0.7s-3.7,12.2-3.7,12.2s-14.4-8.9-17.3-2.7&#10;&#9;&#9;s-5.6,17.5-2.6,20.4c1.9,1.7,4.2,2.8,6.8,3.1l-0.8,20.7L150.9,236.8L150.9,236.8z"/>
	<path class="st2_achievement-45" d="M130.9,243.1c-0.2,0-0.3-0.1-0.4-0.2c-0.2-0.1-0.3-0.4-0.3-0.6l0.8-20c-2.4-0.4-4.7-1.5-6.5-3.2&#10;&#9;&#9;c-3.7-3.4-0.2-15.7,2.4-21.2c0.5-1.1,1.5-2,2.7-2.3c4.5-1.3,12.3,2.8,14.8,4.3c0.6-2.3,2.4-8.3,3.4-11.3c0.6-1.8,1.8-2.8,3.2-2.8&#10;&#9;&#9;c1.7-0.1,3.5,1.3,4.4,3.4c0.8,1.9-0.3,7.9-2.1,16.8c-1,4.8-1.9,9.2-1.8,10.7c0.3,3.7,0,19.4,0,20c0,0.3-0.2,0.6-0.5,0.7l-20,5.6&#10;&#9;&#9;C131,243.1,130.9,243.1,130.9,243.1z M131.6,196.9c-0.5,0-1.1,0.1-1.6,0.2c-0.8,0.2-1.5,0.8-1.9,1.6c-2.9,6.1-5.4,17-2.7,19.5&#10;&#9;&#9;c1.7,1.6,3.9,2.6,6.3,2.8c0.4,0,0.7,0.4,0.7,0.7c0,0,0,0,0,0l-0.8,19.7l18.5-5.2c0-2.9,0.2-16.1,0-19.4c-0.1-1.6,0.8-6,1.8-11.1&#10;&#9;&#9;c1.2-6,2.9-14.3,2.2-16c-0.6-1.5-1.8-2.6-3-2.6s-1.6,1-1.9,1.8c-1.3,3.7-3.6,12.1-3.7,12.1c-0.1,0.2-0.2,0.4-0.4,0.5&#10;&#9;&#9;c-0.2,0.1-0.4,0.1-0.6-0.1C144.4,201.6,136.6,196.9,131.6,196.9L131.6,196.9z M150.9,236.8L150.9,236.8z"/>
	<polygon class="st2_achievement-45" points="206.6,334.7 187.1,409.1 235.9,405.9 246.7,369.1 263.7,404.5 307.4,404.5 280.8,303 &#9;"/>
	<path class="st1_achievement-45" d="M275.9,325l-72.4,13.5l18-106.9c0,0,36.8-7.4,45.7-7.4C274.8,224.2,275.9,325,275.9,325L275.9,325z"/>
	<path class="st2_achievement-45" d="M203.5,339.2c-0.2,0-0.4-0.1-0.5-0.2c-0.2-0.2-0.2-0.4-0.2-0.6l18-106.9c0-0.3,0.3-0.5,0.6-0.6&#10;&#9;&#9;c1.5-0.3,37-7.4,45.9-7.4l0,0c1.6,0,5.4,0.1,7.8,51.1c1.2,24.9,1.5,50.2,1.5,50.4c0,0.3-0.2,0.6-0.6,0.7l-72.4,13.5L203.5,339.2&#10;&#9;&#9;L203.5,339.2z M222.1,232.2l-17.7,105.4l70.8-13.2c-0.6-55.9-4.1-99.5-7.9-99.5C259.1,224.9,226.4,231.3,222.1,232.2L222.1,232.2z"/>
	<path class="st3_achievement-45 targetColor" d="M233.8,224.2c-1.1,0.7,2.1,16.2,2.2,17.7c1.6,14.1,2.4,28.3,2.3,42.5c-0.1,15.8-3.2,31.5-9.2,46.2&#10;&#9;&#9;c-2.7,6.8-5.8,13.4-9.1,20s-9.7,7.6-16.5,7.1c-7.3-0.5-14.5-1.9-21.6-4c-2.4-0.8-5-1.7-6.6-3.7c-2.9-3.6,0.2-8.4,1.9-11.8&#10;&#9;&#9;c2.3-4.9,4.4-9.8,6.5-14.7c3.2-8,12-27.1,14.2-35.4c2.9-10.8-1.4-10.8-0.9-22c0.2-4.5,0.3-9,0.4-13.5c0.1-2.7-0.7-11.2,1.1-13.2&#10;&#9;&#9;C212.1,223.8,233.8,224.2,233.8,224.2L233.8,224.2z"/>
	<path class="st3_achievement-45 targetColor" d="M287.8,221.7c0.5,0.1-1.8,36.3-1.6,38.1c1.2,13.7,21.3,67.7,21.3,67.7c0,5-50.2,34.7-53.4,25.8&#10;&#9;&#9;c14.9-78.4,4.6-129.1,4.3-129.1C258.3,224.2,276.2,219.5,287.8,221.7L287.8,221.7z"/>
	<path class="st2_achievement-45" d="M251,243.4l-5.5,5.4l4.5,3.1c0,0-4.7,34.9-21.2,39.8s-22.9,3.3-22.9,3.3l-9.1,11.8c0,0,14.1,4,15.1,4.4&#10;&#9;&#9;s31-6.6,35.7-25.2c2.8-10.9,4.7-22.1,5.5-33.4l3-3.7L251,243.4L251,243.4z"/>
	<path class="st2_achievement-45" d="M230.4,277.9c-0.2,0-0.4-0.1-0.6-0.3l-13.9-19c-0.2-0.3-0.2-0.7,0.1-0.9l8.7-9l-10.9-2.7&#10;&#9;&#9;c-0.4-0.1-0.6-0.5-0.5-0.9c0-0.1,0.1-0.2,0.2-0.3l12.8-13.7c0.3-0.3,0.7-0.3,1,0s0.3,0.7,0,1l-12,12.8l10.9,2.9&#10;&#9;&#9;c0.4,0.1,0.6,0.5,0.5,0.8c0,0.1-0.1,0.2-0.2,0.3l-9.1,9.4l13.6,18.5c0.2,0.3,0.2,0.8-0.2,1c-0.1,0.1-0.3,0.1-0.4,0.1L230.4,277.9z"/>
	<path class="st2_achievement-45" d="M265.4,275.9c-0.1,0-0.2,0-0.3-0.1c-0.4-0.2-0.5-0.6-0.4-0.9c0,0,0,0,0,0L275,251l-10.5-5.3&#10;&#9;&#9;c-0.2-0.1-0.3-0.2-0.4-0.4c0-0.2,0-0.4,0.1-0.6l7.8-12.8l-10.3-4.8c-0.4-0.2-0.5-0.6-0.3-0.9c0,0,0,0,0,0c0.2-0.3,0.6-0.5,0.9-0.3&#10;&#9;&#9;c0,0,0,0,0,0l11,5.1c0.2,0.1,0.3,0.2,0.4,0.4c0.1,0.2,0,0.4-0.1,0.6l-7.9,12.8l10.5,5.2c0.3,0.2,0.5,0.6,0.3,0.9L266,275.5&#10;&#9;&#9;C265.9,275.7,265.6,275.9,265.4,275.9L265.4,275.9z"/>
	<path class="st3_achievement-45 targetColor" d="M287.8,221.7c0,0,26.2,8.8,33,6.9s20.4-34.2,20.4-34.2l27.6,3.4c0,0-11.5,68.2-33.4,71.9s-51-6.1-51-6.1&#10;&#9;&#9;L287.8,221.7L287.8,221.7z"/>
	<path class="st1_achievement-45" d="M223.9,196.5c-1.1-5.1-2.6-10.1-3.1-15.2s0.2-10.6,3.2-14.9c3.1-4.6,7.2-4.1,12-4.7c6.4-0.8,12.2-4.1,18.1-6.4&#10;&#9;&#9;c1.1-0.4,2.9-0.5,3.1,0.7c0,0.4,0,0.8-0.2,1.1c-0.8,1.9-1.8,3.7-3.2,5.2c4.7-1.1,9.2-2.8,13.3-5.2c0.9,4.6-0.4,9.4-3.4,13l7.9-3.9&#10;&#9;&#9;c1.4,6.6-3.3,13.9-9.9,15.2"/>
	<path class="st2_achievement-45" d="M223.9,197.2c-0.3,0-0.6-0.2-0.7-0.6c-0.3-1.3-0.6-2.6-0.9-4c-1-3.7-1.7-7.5-2.2-11.4&#10;&#9;&#9;c-0.4-4.3-0.1-10.4,3.3-15.4c2.8-4.1,6.3-4.4,10.1-4.7c0.8-0.1,1.6-0.1,2.4-0.2c4.6-0.6,8.9-2.5,13.1-4.3c1.6-0.7,3.2-1.4,4.8-2&#10;&#9;&#9;c1-0.4,2.2-0.4,3.2,0c0.5,0.3,0.8,0.7,0.9,1.2c0.1,0.5,0,1-0.2,1.5c-0.5,1.3-1.2,2.6-2,3.8c3.9-1.1,7.6-2.6,11.1-4.6&#10;&#9;&#9;c0.2-0.1,0.5-0.1,0.7,0c0.2,0.1,0.4,0.3,0.4,0.5c0.7,3.8,0,7.8-1.9,11.1l5.3-2.6c0.2-0.1,0.4-0.1,0.6,0c0.2,0.1,0.4,0.3,0.4,0.5&#10;&#9;&#9;c1.3,7.3-3.3,14.4-10.5,16.1c-0.4,0.1-0.8-0.2-0.9-0.5s0.2-0.8,0.5-0.9c0,0,0,0,0,0c3.1-0.7,5.8-2.6,7.5-5.3c1.6-2.4,2.3-5.2,2-8.1&#10;&#9;&#9;l-7,3.5c-0.3,0.2-0.7,0.1-0.9-0.2c-0.2-0.3-0.2-0.7,0-0.9c2.7-3.1,3.9-7.3,3.4-11.4c-3.9,2.2-8.2,3.8-12.5,4.8&#10;&#9;&#9;c-0.4,0.1-0.8-0.2-0.9-0.5c-0.1-0.2,0-0.5,0.2-0.6c1.3-1.5,2.3-3.2,3.1-5c0.1-0.2,0.2-0.4,0.2-0.7c0-0.1-0.1-0.2-0.2-0.2&#10;&#9;&#9;c-0.7-0.2-1.4-0.2-2,0.1c-1.6,0.6-3.2,1.3-4.8,2c-4.3,1.9-8.7,3.8-13.5,4.4c-0.9,0.1-1.7,0.2-2.5,0.3c-3.7,0.3-6.6,0.6-9,4.1&#10;&#9;&#9;c-3.2,4.6-3.4,10.4-3.1,14.4c0.4,3.8,1.1,7.5,2.1,11.2c0.3,1.3,0.6,2.6,0.9,4c0.1,0.4-0.2,0.8-0.5,0.9c0,0,0,0,0,0L223.9,197.2&#10;&#9;&#9;L223.9,197.2z"/>
	<path class="st1_achievement-45" d="M258.4,218.2L260,229c0,0-1.7,15.8-13.7,13s-16.7-13.5-16.7-13.5l-1.5-28.7c0,0,8.8-4.8,6-24&#10;&#9;&#9;c9.8,4.1,20.5,5.5,31,4c0,0,4.2,19.7,2.9,29s-9.7,9.3-9.7,9.3L258.4,218.2z"/>
	<path class="st2_achievement-45" d="M249.1,243.1c-1,0-1.9-0.1-2.9-0.4c-12.2-2.8-17-13.5-17.2-14c0-0.1-0.1-0.2-0.1-0.2l-1.5-28.7&#10;&#9;&#9;c0-0.3,0.1-0.5,0.4-0.7c0.1,0,8.3-4.9,5.6-23.2c0-0.4,0.2-0.8,0.6-0.8c0.1,0,0.2,0,0.4,0c9.7,4,20.2,5.4,30.6,3.9&#10;&#9;&#9;c0.4-0.1,0.7,0.2,0.8,0.6c0.2,0.8,4.3,20,2.9,29.2c-1.2,8-7.4,9.5-9.6,9.9l1.6,10.1c0,0.1,0,0.1,0,0.2c0,0.4-1,8.6-6.2,12.3&#10;&#9;&#9;C252.9,242.5,251,243.1,249.1,243.1L249.1,243.1z M230.4,228.4c0.6,1.1,5.4,10.5,16.1,13c2.5,0.7,5.1,0.3,7.2-1.1&#10;&#9;&#9;c4.4-3.1,5.5-10.3,5.6-11.2l-1.7-10.8c-0.1-0.4,0.2-0.8,0.6-0.8c0,0,0.1,0,0.1,0c0.3,0,7.8-0.2,9-8.7c1.2-8.1-2-24.6-2.8-28.1&#10;&#9;&#9;c-10,1.2-20.2,0-29.6-3.7c2,16.4-4.4,22-6.2,23.2L230.4,228.4L230.4,228.4z"/>
	<path class="st1_achievement-45" d="M252.2,191.4c0,0,5.7,10.4,4,12s-6,0-6,0"/>
	<path class="st2_achievement-45" d="M253.8,204.8c-1.3,0-2.6-0.3-3.8-0.7c-0.4-0.1-0.5-0.5-0.4-0.9c0,0,0,0,0,0c0.1-0.4,0.5-0.5,0.9-0.4&#10;&#9;&#9;c1,0.4,4.1,1.1,5.3,0.1c0.7-0.6-1.3-5.9-4.1-11.1c-0.2-0.3-0.1-0.8,0.3-0.9c0.3-0.2,0.8-0.1,1,0.2c0,0,0,0,0,0.1&#10;&#9;&#9;c1.8,3.3,5.7,11.1,3.8,12.8C255.9,204.6,254.9,204.9,253.8,204.8L253.8,204.8z"/>
	
		<ellipse transform="matrix(0.9991 -4.205003e-02 4.205003e-02 0.9991 -7.7588 10.3454)" class="st2_achievement-45" cx="242" cy="189.6" rx="1.2" ry="2.7"/>
	
		<ellipse transform="matrix(0.9991 -4.205003e-02 4.205003e-02 0.9991 -7.7423 11.1336)" class="st2_achievement-45" cx="260.8" cy="189.6" rx="1.2" ry="2.7"/>
	<path class="st1_achievement-45" d="M235.8,194.9c-1.1-1.8-2.5-3.4-4.1-4.7c-0.9-0.8-1.9-1.2-3.1-1.4c-0.9,0-1.8,0.3-2.6,0.8&#10;&#9;&#9;c-2.4,1.4-4.1,3.7-4.6,6.4c-0.3,1.2-0.2,2.5,0.1,3.7c0.7,1.9,2,3.5,3.7,4.5c1.7,1,3.5,1.8,5.4,2.4"/>
	<path class="st2_achievement-45" d="M230.7,207.4c-0.1,0-0.2,0-0.2,0c-2-0.6-3.8-1.4-5.6-2.4c-1.9-1.1-3.3-2.8-4-4.9c-0.4-1.3-0.4-2.7-0.2-4.1&#10;&#9;&#9;c0.6-2.9,2.4-5.4,4.9-6.9c0.9-0.6,1.9-0.9,3-0.9c1.3,0.1,2.5,0.7,3.5,1.5c1.7,1.3,3.2,3,4.3,4.9c0.2,0.3,0.1,0.8-0.3,1&#10;&#9;&#9;c-0.3,0.2-0.8,0.1-1-0.3c-1-1.7-2.3-3.2-3.9-4.5c-0.7-0.7-1.7-1.1-2.6-1.2c-0.8,0-1.6,0.3-2.2,0.7c-2.2,1.3-3.8,3.5-4.2,6&#10;&#9;&#9;c-0.2,1.1-0.2,2.3,0.1,3.4c0.6,1.7,1.8,3.2,3.4,4.1c1.7,0.9,3.5,1.7,5.3,2.2c0.4,0.1,0.6,0.5,0.5,0.9&#10;&#9;&#9;C231.4,207.2,231.1,207.4,230.7,207.4L230.7,207.4z"/>
	<path class="st2_achievement-45" d="M258.4,218.2c-6.8,1-13.9-0.1-20-3.3c0,0,10.2,15.7,21.6,13.5L258.4,218.2z"/>
	<path class="st2_achievement-45" d="M257.7,229.3c-10.7,0-19.6-13.4-19.9-14c-0.2-0.3-0.1-0.6,0.1-0.9c0.2-0.2,0.6-0.3,0.8-0.2&#10;&#9;&#9;c6,3.1,12.9,4.2,19.6,3.2c0.4-0.1,0.8,0.2,0.8,0.5c0,0,0,0,0,0l1.6,10.2c0.1,0.4-0.2,0.7-0.6,0.8&#10;&#9;&#9;C259.3,229.2,258.5,229.3,257.7,229.3L257.7,229.3z M240.5,216.6c3.1,4,10.6,12.2,18.7,11.1l-1.4-8.8&#10;&#9;&#9;C251.9,219.8,245.9,218.9,240.5,216.6L240.5,216.6z"/>
	<path class="st2_achievement-45" d="M243.2,199.1c-5.2,0-9.5-4.2-9.5-9.5c0-5.2,4.2-9.5,9.5-9.5c5.2,0,9.5,4.2,9.5,9.5c0,0,0,0,0,0&#10;&#9;&#9;C252.7,194.8,248.4,199,243.2,199.1z M243.2,181.5c-4.4,0-8.1,3.6-8.1,8.1s3.6,8.1,8.1,8.1s8.1-3.6,8.1-8.1&#10;&#9;&#9;C251.2,185.1,247.6,181.5,243.2,181.5L243.2,181.5z"/>
	<path class="st2_achievement-45" d="M262.1,199.1c-5.2,0-9.5-4.2-9.5-9.5s4.2-9.5,9.5-9.5s9.5,4.2,9.5,9.5c0,0,0,0,0,0&#10;&#9;&#9;C271.6,194.8,267.4,199,262.1,199.1z M262.1,181.5c-4.4,0-8.1,3.6-8.1,8c0,4.4,3.6,8.1,8,8.1c4.4,0,8.1-3.6,8.1-8c0,0,0,0,0,0&#10;&#9;&#9;C270.2,185.1,266.6,181.5,262.1,181.5L262.1,181.5z"/>
	<path class="st2_achievement-45" d="M252.3,210.6L252.3,210.6c-4.5,0-8.8-2.7-12.8-7.9c-0.2-0.3-0.1-0.8,0.2-1c0.3-0.2,0.7-0.1,0.9,0.1&#10;&#9;&#9;c3.7,4.9,7.6,7.3,11.6,7.4h0.1c5.5,0,9.3-4.7,9.3-4.8c0.2-0.3,0.7-0.4,1-0.1c0,0,0,0,0,0c0.3,0.2,0.4,0.7,0.1,1c0,0,0,0,0,0&#10;&#9;&#9;C262.5,205.6,258.4,210.6,252.3,210.6L252.3,210.6z"/>
	<path class="st3_achievement-45 targetColor" d="M203.5,234.6c-5,4.8-41.8,42-44.5,35.1s-4.7-38.4-4.7-38.4l-25.2,3.7c0,0-14.5,70.9,10.7,78.7&#10;&#9;&#9;s63.7-29.4,63.7-29.4L203.5,234.6L203.5,234.6z"/>
	<path class="st2_achievement-45" d="M182.8,326.4c-0.1,0-0.2,0-0.4-0.1c-0.3-0.2-0.5-0.6-0.3-0.9c0,0,0,0,0,0c0.2-0.3,16.3-29.1,21.5-74.8&#10;&#9;&#9;c0.1-0.4,0.4-0.7,0.8-0.6c0.4,0,0.7,0.4,0.6,0.8c-5.3,46-21.5,75-21.7,75.3C183.3,326.3,183.1,326.4,182.8,326.4L182.8,326.4z"/>
	<path class="st2_achievement-45" d="M329.9,270.4c-18.8,0-53.9-7.9-54.2-8c-0.4-0.1-0.6-0.5-0.5-0.8c0.1-0.4,0.4-0.6,0.8-0.5c0,0,0,0,0,0&#10;&#9;&#9;c0.4,0.1,35.2,7.9,53.9,7.9c0.5,0,1,0,1.5,0c0.4,0,0.7,0.3,0.7,0.7c0,0.4-0.3,0.7-0.7,0.7L329.9,270.4L329.9,270.4z"/>
	<path class="st1_achievement-45" d="M139.5,198.3c0,0,4.4,4.7,2.3,13s-5.8,9.9-12,6.1"/>
	<path class="st2_achievement-45" d="M135.2,220.1c-2.1-0.1-4.1-0.8-5.8-2c-0.3-0.2-0.4-0.7-0.2-1c0.2-0.3,0.7-0.4,1-0.2c2.8,1.7,5,2.2,6.6,1.5&#10;&#9;&#9;c1.9-0.8,3.3-3.1,4.4-7.2c2-7.8-1.9-12.1-2.1-12.3c-0.3-0.3-0.3-0.7,0-1c0.3-0.3,0.7-0.3,1,0c0.2,0.2,4.7,5.1,2.4,13.7&#10;&#9;&#9;c-1.2,4.6-2.9,7.2-5.2,8.2C136.6,220,135.9,220.1,135.2,220.1L135.2,220.1z"/>
</g>
<g id="Star">
	<polygon class="st1_achievement-45" points="352.1,91.5 368.8,125.4 406.1,130.8 379.1,157.1 385.5,194.4 352.1,176.8 318.7,194.4 325,157.1 &#10;&#9;&#9;298,130.8 335.4,125.4 &#9;"/>
	<path class="st2_achievement-45" d="M385.5,195.1c-0.1,0-0.2,0-0.3-0.1l-33.1-17.4L319,195c-0.2,0.1-0.5,0.1-0.7-0.1c-0.2-0.2-0.3-0.4-0.3-0.7&#10;&#9;&#9;l6.3-36.8l-26.8-26.1c-0.3-0.3-0.3-0.7,0-1c0.1-0.1,0.3-0.2,0.4-0.2l37-5.4l16.5-33.5c0.2-0.3,0.7-0.5,1-0.3&#10;&#9;&#9;c0.1,0.1,0.2,0.2,0.3,0.3l16.5,33.5l37,5.4c0.3,0,0.5,0.2,0.6,0.5c0.1,0.3,0,0.5-0.2,0.7l-26.8,26.1l6.3,36.8&#10;&#9;&#9;c0.1,0.3-0.1,0.5-0.3,0.7C385.8,195,385.7,195.1,385.5,195.1L385.5,195.1z M352.1,176.1c0.1,0,0.2,0,0.3,0.1l32.1,16.9l-6.1-35.8&#10;&#9;&#9;c0-0.2,0-0.5,0.2-0.6l26-25.4l-35.9-5.2c-0.2,0-0.4-0.2-0.5-0.4l-16.1-32.5L336,125.7c-0.1,0.2-0.3,0.4-0.5,0.4l-35.9,5.2l26,25.4&#10;&#9;&#9;c0.2,0.2,0.2,0.4,0.2,0.6l-6.1,35.8l32.1-16.9C351.8,176.1,352,176.1,352.1,176.1L352.1,176.1z"/>
</g>
<g id="Character_Thumb">
	<path class="st1_achievement-45" d="M347.4,184.9c0,0-8.1-13.6-6.1-15s6.6,3.9,9.1,7.5c0,0,7.8,1.4,6.5,10.1"/>
	<path class="st2_achievement-45" d="M356.8,188.2h-0.1c-0.4-0.1-0.7-0.4-0.6-0.8c1.2-7.9-5.6-9.2-5.9-9.2c-0.2,0-0.4-0.1-0.5-0.3&#10;&#9;&#9;c-3.3-4.7-7-8.1-8.1-7.3c-0.5,0.9,2.4,7.4,6.3,14c0.2,0.3,0.1,0.8-0.2,1c-0.3,0.2-0.8,0.1-1-0.2c0,0,0,0,0,0&#10;&#9;&#9;c-3.8-6.5-8-14.5-5.9-15.9c2.8-2,8.1,4.9,9.9,7.4c1.5,0.4,8,2.6,6.8,10.8C357.5,188,357.2,188.2,356.8,188.2L356.8,188.2z"/>
</g>
</svg>
